<?xml version="1.0" standalone="no"?>
<!DOCTYPE svg PUBLIC "-//W3C//DTD SVG 20010904//EN"
 "http://www.w3.org/TR/2001/REC-SVG-20010904/DTD/svg10.dtd">
<svg version="1.0" xmlns="http://www.w3.org/2000/svg"
 width="900.000000pt" height="900.000000pt" viewBox="0 0 900.000000 900.000000"
 preserveAspectRatio="xMidYMid meet">

<g transform="translate(0.000000,900.000000) scale(0.100000,-0.100000)"
fill="#000000" stroke="none">
<path d="M0 4500 l0 -4500 4500 0 4500 0 0 4500 0 4500 -4500 0 -4500 0 0
-4500z m4399 2768 c190 -45 354 -122 486 -231 129 -106 133 -111 560 -747 110
-162 272 -403 361 -535 90 -132 264 -391 388 -575 124 -184 257 -382 297 -440
39 -58 167 -247 283 -420 355 -527 547 -813 581 -860 83 -115 158 -289 191
-440 18 -81 20 -316 4 -396 -48 -238 -149 -435 -297 -581 -56 -55 -190 -163
-213 -171 -8 -3 -26 -13 -40 -22 -32 -21 -170 -79 -230 -95 -122 -33 -163 -39
-300 -39 -181 0 -307 27 -466 99 -167 76 -343 228 -453 390 -29 44 -131 195
-226 335 -94 140 -234 347 -310 460 -371 550 -465 687 -477 697 -170 139 -467
56 -567 -159 -63 -135 -94 -283 -151 -728 -23 -183 -58 -304 -127 -442 -145
-289 -422 -519 -730 -606 -37 -10 -93 -25 -123 -32 -74 -18 -359 -19 -425 -2
-187 49 -192 50 -325 115 -325 159 -558 468 -635 842 -19 92 -22 334 -6 422
50 261 178 496 367 672 168 156 375 261 599 301 39 7 95 19 125 27 30 8 69 18
86 22 18 5 65 23 105 42 302 136 526 416 613 765 40 159 51 281 36 383 -13 91
-39 172 -64 200 -57 64 -161 274 -188 381 -62 246 -48 469 42 697 101 253 301
466 550 585 111 53 254 93 360 102 70 6 269 -4 319 -16z"/>
</g>
</svg>
