<?xml version="1.0" standalone="no"?>
<!DOCTYPE svg PUBLIC "-//W3C//DTD SVG 20010904//EN"
 "http://www.w3.org/TR/2001/REC-SVG-20010904/DTD/svg10.dtd">
<svg version="1.0" xmlns="http://www.w3.org/2000/svg"
 width="204.000000pt" height="192.000000pt" viewBox="0 0 204.000000 192.000000"
 preserveAspectRatio="xMidYMid meet">

<g transform="translate(0.000000,192.000000) scale(0.100000,-0.100000)"
fill="#000000" stroke="none">
<path d="M0 960 l0 -960 1020 0 1020 0 0 960 0 960 -1020 0 -1020 0 0 -960z
m1678 363 c51 -38 67 -70 67 -133 0 -63 -16 -95 -69 -134 -64 -48 -185 -15
-221 62 l-16 32 -82 0 c-45 0 -91 -3 -103 -6 -25 -7 -49 -46 -58 -95 -4 -21
-16 -49 -27 -63 l-20 -26 20 -25 c11 -14 22 -40 26 -58 11 -58 28 -89 52 -98
36 -13 37 -12 61 30 46 81 153 102 229 44 94 -72 83 -199 -22 -261 -72 -41
-150 -19 -203 58 -18 26 -35 39 -50 40 -34 0 -84 24 -108 51 -12 13 -28 50
-35 82 -15 68 -44 97 -96 97 -26 0 -35 -5 -42 -24 -25 -63 -131 -111 -196 -86
-37 14 -84 57 -96 88 -7 18 -16 22 -49 22 -28 0 -40 -4 -40 -15 0 -28 -59 -82
-103 -94 -75 -21 -162 18 -188 86 -12 31 -12 95 0 126 26 68 113 107 188 86
44 -12 103 -66 103 -94 0 -23 79 -20 87 3 21 61 110 109 177 97 40 -8 104 -58
117 -91 7 -19 16 -24 42 -24 51 0 81 30 96 94 24 108 69 136 220 136 99 0 101
0 115 28 18 34 53 68 86 81 35 15 108 7 138 -16z"/>
<path d="M1545 1235 c-14 -13 -25 -33 -25 -45 0 -28 43 -70 72 -70 40 0 68 27
68 66 0 68 -68 97 -115 49z"/>
<path d="M401 1004 c-12 -15 -21 -34 -21 -44 0 -10 9 -29 21 -44 40 -50 119
-24 119 40 0 69 -78 101 -119 48z"/>
<path d="M787 1012 c-23 -25 -22 -85 1 -105 24 -22 75 -22 94 1 27 30 29 55 8
90 -16 26 -26 32 -53 32 -20 0 -41 -7 -50 -18z"/>
<path d="M1398 783 c-23 -28 -28 -51 -17 -80 12 -33 26 -43 61 -43 34 0 68 35
68 70 0 57 -77 93 -112 53z"/>
</g>
</svg>
